<?xml version="1.0" standalone="no"?>
<!DOCTYPE svg PUBLIC "-//W3C//DTD SVG 20010904//EN"
 "http://www.w3.org/TR/2001/REC-SVG-20010904/DTD/svg10.dtd">
<svg version="1.0" xmlns="http://www.w3.org/2000/svg"
 width="800.000000pt" height="800.000000pt" viewBox="0 0 800.000000 800.000000"
 preserveAspectRatio="xMidYMid meet">
<metadata>
Created by potrace 1.14, written by Peter Selinger 2001-2017
</metadata>
<g transform="translate(0.000000,800.000000) scale(0.100000,-0.100000)"
fill="#000000" stroke="none">
<path d="M2377 5950 c-92 -16 -192 -52 -277 -97 -47 -25 -87 -48 -90 -52 -3
-3 -23 -18 -45 -32 -22 -15 -120 -80 -218 -145 -98 -66 -209 -139 -247 -164
-277 -183 -557 -372 -569 -382 -8 -7 -20 -15 -25 -18 -6 -3 -43 -26 -83 -53
-39 -26 -75 -47 -79 -47 -4 0 -19 -11 -33 -24 -15 -13 -93 -69 -176 -124 -82
-55 -177 -125 -209 -154 -109 -97 -211 -254 -247 -379 -7 -24 -17 -50 -23 -58
-6 -8 -12 -78 -15 -162 -3 -136 -1 -155 23 -241 15 -51 38 -117 51 -145 13
-29 21 -53 17 -53 -4 0 -2 -4 3 -8 6 -4 23 -25 38 -47 84 -123 187 -219 319
-300 9 -5 37 -23 62 -40 246 -159 337 -218 412 -265 146 -92 215 -136 319
-203 92 -60 356 -229 393 -252 9 -5 56 -36 105 -68 49 -31 92 -57 96 -57 5 0
28 -15 53 -34 25 -19 60 -43 79 -54 19 -11 70 -42 114 -69 313 -193 729 -245
1102 -137 114 33 309 128 402 195 105 77 221 195 284 291 115 174 148 268 223
643 9 44 18 98 21 120 2 22 10 63 18 90 8 28 21 95 30 150 10 55 21 111 25
125 5 14 8 32 8 40 0 25 52 283 61 305 5 11 13 54 19 95 6 41 23 134 37 205
14 72 37 189 50 260 77 406 96 456 235 595 149 150 322 220 542 220 181 0 299
-42 518 -185 104 -68 241 -154 268 -170 17 -10 101 -65 232 -151 41 -27 79
-51 85 -53 5 -2 59 -36 120 -76 60 -39 152 -98 203 -131 96 -61 119 -76 168
-108 16 -11 48 -31 71 -45 334 -203 447 -291 493 -386 22 -43 25 -64 25 -155
0 -111 -7 -136 -60 -210 -50 -69 -75 -88 -480 -356 -71 -47 -139 -95 -151
-105 -11 -10 -23 -19 -27 -19 -5 0 -204 -129 -286 -186 -27 -19 -230 -154
-253 -169 -14 -9 -152 -102 -403 -272 -135 -92 -220 -112 -329 -79 -128 39
-219 185 -186 301 19 66 64 130 118 164 26 16 72 47 102 68 30 22 87 61 125
88 39 27 86 61 106 77 20 15 39 28 42 28 4 0 59 37 123 83 212 148 338 236
399 277 33 22 67 46 75 53 8 7 49 35 90 62 129 85 167 121 175 164 13 80 -17
116 -195 230 -58 38 -143 93 -190 123 -47 30 -172 110 -278 179 -107 68 -275
177 -375 241 -197 127 -244 145 -343 135 -112 -12 -210 -87 -241 -184 -22 -70
-7 -160 35 -212 38 -47 155 -129 395 -276 27 -17 90 -57 140 -91 51 -33 113
-73 140 -88 26 -15 47 -31 47 -36 0 -4 -39 -35 -87 -68 -49 -34 -115 -81 -148
-105 -33 -25 -103 -73 -155 -108 -52 -35 -103 -72 -114 -81 -10 -9 -33 -24
-50 -32 -18 -8 -40 -24 -51 -36 -10 -11 -22 -20 -27 -20 -5 0 -16 -6 -23 -12
-8 -7 -40 -31 -71 -53 -73 -51 -190 -166 -232 -229 -40 -60 -90 -179 -108
-261 -18 -79 -17 -204 1 -290 21 -98 102 -260 167 -330 193 -211 434 -307 737
-292 96 4 134 11 221 40 138 46 95 21 565 332 160 105 313 205 340 220 28 16
55 34 60 41 6 6 192 132 415 279 462 306 546 367 613 444 47 53 136 184 128
185 -2 1 6 20 18 43 11 23 33 88 47 145 24 92 26 113 21 227 -11 241 -96 425
-273 591 -63 59 -213 170 -229 170 -4 0 -25 13 -48 29 -23 16 -104 69 -180
117 -75 49 -158 103 -183 119 -25 17 -53 35 -62 40 -10 6 -33 22 -53 38 -20
15 -40 27 -44 27 -3 0 -26 14 -50 30 -24 17 -46 30 -48 30 -3 0 -55 34 -116
75 -62 41 -113 75 -115 75 -3 0 -53 33 -113 73 -60 39 -121 78 -135 85 -14 8
-38 25 -53 38 -15 13 -32 24 -36 24 -8 0 -44 22 -114 70 -201 136 -327 207
-463 259 -281 107 -672 106 -952 -2 -280 -109 -502 -286 -636 -507 -21 -36
-44 -76 -50 -90 -6 -14 -20 -44 -32 -67 -25 -51 -51 -157 -91 -363 -33 -172
-37 -195 -52 -260 -10 -45 -43 -215 -79 -410 -11 -58 -24 -125 -30 -150 -6
-25 -29 -139 -51 -255 -22 -115 -52 -266 -65 -335 -14 -69 -29 -147 -33 -175
-40 -239 -97 -371 -208 -478 -107 -104 -212 -161 -361 -197 -78 -19 -111 -22
-215 -18 -104 4 -136 10 -217 37 -52 18 -114 45 -137 62 -23 16 -44 29 -47 29
-3 0 -40 23 -83 50 -107 69 -112 73 -138 93 -13 9 -26 17 -30 17 -3 0 -25 12
-48 28 -23 15 -50 32 -59 37 -9 6 -64 42 -121 80 -58 39 -142 93 -186 120
-129 79 -242 151 -291 185 -25 17 -117 76 -205 132 -178 112 -225 142 -338
217 -43 28 -82 51 -86 51 -19 0 -110 104 -136 157 -25 48 -31 73 -33 145 -3
61 1 101 12 135 25 76 100 159 212 235 248 169 534 358 543 358 5 0 11 4 13 8
4 9 52 42 435 297 160 107 297 195 302 195 6 0 11 4 11 8 0 11 175 129 238
161 90 45 225 37 292 -17 122 -100 154 -198 104 -318 -14 -32 -90 -112 -122
-127 -10 -4 -40 -24 -68 -45 -28 -20 -91 -64 -140 -97 -49 -33 -91 -63 -94
-66 -3 -4 -52 -39 -110 -78 -136 -93 -170 -116 -200 -138 -13 -10 -133 -93
-265 -184 -132 -92 -259 -181 -282 -198 -53 -39 -72 -92 -55 -148 13 -43 66
-84 277 -218 69 -44 182 -116 250 -160 68 -44 201 -129 295 -190 95 -60 207
-133 249 -161 42 -28 105 -65 139 -84 58 -31 66 -32 141 -28 250 14 361 238
212 425 -14 18 -29 33 -33 33 -4 0 -78 46 -165 101 -87 56 -177 114 -199 128
-23 14 -77 49 -119 76 -43 28 -99 64 -126 80 -26 17 -51 33 -54 37 -8 8 25 42
62 63 15 8 62 40 103 70 41 30 107 77 145 103 39 27 97 68 130 91 33 23 71 49
85 59 14 9 57 40 96 68 39 29 86 60 105 69 38 20 229 209 229 227 0 6 6 19 13
27 12 14 24 40 77 166 18 44 33 178 27 257 -11 159 -74 306 -186 434 -63 73
-89 95 -180 156 -46 32 -154 79 -236 105 -66 21 -105 26 -220 29 -77 1 -162
-1 -188 -6z"/>
</g>
</svg>
